<svg xmlns="http://www.w3.org/2000/svg" width="37.255" height="40.332" viewBox="0 0 37.255 40.332">
  <g id="transparent-logo-font-meter-m-bonus-payment-money-icon-ios-11-glyphs5ea8e42d85f6b0" transform="translate(-51.565 494.448)">
    <path id="Path_85344" data-name="Path 85344" d="M162.514-494.4a5.1,5.1,0,0,0-2.258,1.074l-.4.373h-2.131a21.625,21.625,0,0,0-2.54.1A1.525,1.525,0,0,0,154-491.385a20.671,20.671,0,0,0,.747,2.458l.756,2.167h15.579l.747-2.122c.838-2.358.883-2.677.519-3.3-.4-.683-.564-.729-3.278-.756l-2.358-.036-.373-.337a3.739,3.739,0,0,0-1.548-.9A5.211,5.211,0,0,0,162.514-494.4Z" transform="translate(-93.108)" fill="#999df1"/>
    <path id="Path_85345" data-name="Path 85345" d="M60.947-373.607c-4.434,4.489-7.548,9.515-8.75,14.123-1.284,4.908-.6,8.869,1.967,11.518a8.383,8.383,0,0,0,3.542,2.213l.683.209H81.971l.683-.209a8.824,8.824,0,0,0,5.837-6.346,13.167,13.167,0,0,0,.282-4.088,21.135,21.135,0,0,0-2.349-7.84,36.952,36.952,0,0,0-7.048-9.633L78.047-375H62.322Zm10.781,5.254v1.266l.437.137A4.549,4.549,0,0,1,74.66-365.2a3.743,3.743,0,0,1,.619,1.712v.237H72.666l-.055-.255a2.164,2.164,0,0,0-2.049-1.448,2.5,2.5,0,0,0-2.44.9,1.485,1.485,0,0,0,.036,1.411c.346.492.683.61,3.77,1.329,2.814.656,3.97,2.167,3.524,4.571a4.146,4.146,0,0,1-3.2,3.187l-.528.146v2.449h-3.1v-2.449l-.519-.146A4.072,4.072,0,0,1,64.862-357l-.064-.337h2.713l.1.346a2.145,2.145,0,0,0,1.284,1.211,5.226,5.226,0,0,0,2.431.1,1.744,1.744,0,0,0,1.4-1.53c0-.974-.565-1.357-2.732-1.821-2.331-.5-3.123-.81-3.861-1.539a3.774,3.774,0,0,1-.674-.938,2.814,2.814,0,0,1-.246-1.566,3,3,0,0,1,.237-1.575,4.225,4.225,0,0,1,2.6-2.249l.583-.2v-2.531h3.1Z" transform="translate(0 -108.572)" fill="#999df1"/>
  </g>
</svg>
