<svg width="46" height="47" fill="none" xmlns="http://www.w3.org/2000/svg"><g clip-path="url(#a)"><path d="M13.691 16.574H3.621a2.875 2.875 0 0 1-2.879-2.88V3.622A2.875 2.875 0 0 1 3.621.742h10.07a2.875 2.875 0 0 1 2.88 2.88v10.072a2.875 2.875 0 0 1-2.88 2.88ZM42.38 46.258H32.31a2.875 2.875 0 0 1-2.88-2.88V33.306a2.875 2.875 0 0 1 2.88-2.88h10.07a2.875 2.875 0 0 1 2.879 2.88v10.073a2.875 2.875 0 0 1-2.88 2.879Z" stroke="#17154B" stroke-width="1.5" stroke-miterlimit="10" stroke-linecap="round" stroke-linejoin="round"/><path d="M8.656 11.626a2.964 2.964 0 0 1-2.968-2.968 2.964 2.964 0 0 1 2.968-2.969 2.964 2.964 0 0 1 2.968 2.969 2.964 2.964 0 0 1-2.968 2.968Z" stroke="#17154B" stroke-width="1.5" stroke-miterlimit="10" stroke-linecap="round" stroke-linejoin="round"/><path d="M37.345 40.321a1.979 1.979 0 1 0 0-3.957 1.979 1.979 0 0 0 0 3.957Z" fill="#17154B"/><path d="M29.43 38.342H8.656v-17.81M16.57 8.658h20.774v18.8" stroke="#17154B" stroke-width="1.5" stroke-miterlimit="10" stroke-linecap="round" stroke-linejoin="round"/><path d="m12.553 25.539-3.818-5.917-4.076 5.818m28.866-3.899 3.819 5.917 4.076-5.818" stroke="#17154B" stroke-width="1.5" stroke-miterlimit="10" stroke-linecap="round" stroke-linejoin="round"/></g><defs><clipPath id="a"><path fill="#fff" d="M0 0h46v47H0z"/></clipPath></defs></svg>