<svg width="700" height="584" fill="none" xmlns="http://www.w3.org/2000/svg"><g clip-path="url(#a)"><path d="M350.17 357.26v164.58M350.17 326.5v18.93M350.17 292.71v16.93M350.17 228.16V63.58M350.17 258.93V240M350.17 292.71v-16.93M286.18 292.71H123.02M316.679 292.71h-18.77M350.169 292.71h-16.76M414.17 292.71h163.16M383.67 292.71h18.76M350.17 292.71h16.77" stroke="#CADFEB" stroke-width="3" stroke-miterlimit="10" stroke-linecap="round" stroke-linejoin="round"/><path fill-rule="evenodd" clip-rule="evenodd" d="M350.17 252.93c-21.68 0-39.26 17.57-39.26 39.26 0 21.68 17.57 39.26 39.26 39.26 21.69 0 39.26-17.57 39.26-39.26 0-21.68-17.58-39.26-39.26-39.26Z" fill="#fff" stroke="#17154B" stroke-width="3" stroke-miterlimit="10" stroke-linecap="round" stroke-linejoin="round"/><path d="M326.76 97.13 155.62 268.27c-13.48 13.48-13.48 35.34 0 48.82l171.14 171.14c13.48 13.48 35.34 13.48 48.82 0l171.14-171.14c13.48-13.48 13.48-35.34 0-48.82L375.58 97.13c-13.49-13.48-35.34-13.48-48.82 0Z" stroke="#CADFEB" stroke-width="3" stroke-miterlimit="10" stroke-linecap="round" stroke-linejoin="round"/><path d="M350.17 172.76c-65.96 0-119.42 53.47-119.42 119.42 0 65.96 53.47 119.42 119.42 119.42" stroke="#00B2C8" stroke-width="3" stroke-miterlimit="10" stroke-linecap="round" stroke-linejoin="round"/><path d="M230.22 336.12c23.974 0 43.41-19.436 43.41-43.41 0-23.975-19.436-43.41-43.41-43.41-23.975 0-43.41 19.435-43.41 43.41 0 23.974 19.435 43.41 43.41 43.41Z" fill="#fff" stroke="#17154B" stroke-width="3" stroke-miterlimit="10" stroke-linecap="round" stroke-linejoin="round"/><path d="m416.92 292.71 52.67-.52c0-65.96-53.47-119.42-119.42-119.42M350.43 411.87c52.3 0 96.75-33.62 112.91-80.43" stroke="#00B2C8" stroke-width="3" stroke-miterlimit="10" stroke-linecap="round" stroke-linejoin="round"/><path d="M350.17 216.17c23.974 0 43.41-19.435 43.41-43.41 0-23.975-19.436-43.41-43.41-43.41-23.975 0-43.41 19.435-43.41 43.41 0 23.975 19.435 43.41 43.41 43.41Z" fill="#fff" stroke="#17154B" stroke-width="3" stroke-miterlimit="10" stroke-linecap="round" stroke-linejoin="round"/><path d="m410.88 292.42 10.47 4.49c-1.78-3.56-1.96-5.88-.18-9.44l-10.29 4.95Z" fill="#17154B" stroke="#17154B" stroke-width="3" stroke-miterlimit="10" stroke-linecap="round" stroke-linejoin="round"/><path d="M349.5 456.07c23.975 0 43.41-19.435 43.41-43.41 0-23.975-19.435-43.41-43.41-43.41-23.975 0-43.41 19.435-43.41 43.41 0 23.975 19.435 43.41 43.41 43.41Z" fill="#fff" stroke="#17154B" stroke-width="3" stroke-miterlimit="10" stroke-linecap="round" stroke-linejoin="round"/><path d="M445.4 171.93a4.71 4.71 0 1 0 0-9.42 4.71 4.71 0 0 0 0 9.42Z" fill="#fff" stroke="#F78A7E" stroke-width="3" stroke-miterlimit="10" stroke-linecap="round" stroke-linejoin="round"/><path d="M461.011 187.54a4.71 4.71 0 1 0 0-9.42 4.71 4.71 0 0 0 0 9.42ZM476.62 203.15a4.71 4.71 0 1 0 0-9.42 4.71 4.71 0 0 0 0 9.42Z" fill="#fff" stroke="#CADFEB" stroke-width="3" stroke-miterlimit="10" stroke-linecap="round" stroke-linejoin="round"/><path d="M191.52 357.48a4.71 4.71 0 1 0 0-9.42 4.71 4.71 0 0 0 0 9.42Z" fill="#fff" stroke="#00B2C8" stroke-width="3" stroke-miterlimit="10" stroke-linecap="round" stroke-linejoin="round"/><path d="M325.94 521.85a3.98 3.98 0 1 0 0-7.96 3.98 3.98 0 0 0 0 7.96Z" fill="#fff" stroke="#F78A7E" stroke-width="3" stroke-miterlimit="10" stroke-linecap="round" stroke-linejoin="round"/><path d="M350.17 521.85a3.98 3.98 0 1 0 .001-7.959 3.98 3.98 0 0 0-.001 7.959ZM374.4 521.85a3.98 3.98 0 1 0 0-7.96 3.98 3.98 0 0 0 0 7.96Z" fill="#fff" stroke="#17154B" stroke-width="3" stroke-miterlimit="10" stroke-linecap="round" stroke-linejoin="round"/><path d="M325.94 70.46a3.98 3.98 0 1 0 0-7.96 3.98 3.98 0 0 0 0 7.96Z" fill="#fff" stroke="#F78A7E" stroke-width="3" stroke-miterlimit="10" stroke-linecap="round" stroke-linejoin="round"/><path d="M350.17 70.46a3.98 3.98 0 1 0 .001-7.959 3.98 3.98 0 0 0-.001 7.959ZM374.4 70.46a3.98 3.98 0 1 0 0-7.96 3.98 3.98 0 0 0 0 7.96ZM124.48 271.92a3.98 3.98 0 1 0 0-7.96 3.98 3.98 0 0 0 0 7.96ZM124.48 296.15a3.98 3.98 0 1 0 0-7.96 3.98 3.98 0 0 0 0 7.96Z" fill="#fff" stroke="#17154B" stroke-width="3" stroke-miterlimit="10" stroke-linecap="round" stroke-linejoin="round"/><path d="M124.48 320.38a3.98 3.98 0 1 0 0-7.96 3.98 3.98 0 0 0 0 7.96Z" stroke="#00B2C8" stroke-width="3" stroke-miterlimit="10" stroke-linecap="round" stroke-linejoin="round"/><path d="M575.87 271.92a3.98 3.98 0 1 0 0-7.96 3.98 3.98 0 0 0 0 7.96ZM575.87 296.15a3.98 3.98 0 1 0 0-7.96 3.98 3.98 0 0 0 0 7.96Z" fill="#fff" stroke="#17154B" stroke-width="3" stroke-miterlimit="10" stroke-linecap="round" stroke-linejoin="round"/><path d="M575.87 320.38a3.98 3.98 0 1 0 0-7.96 3.98 3.98 0 0 0 0 7.96Z" stroke="#00B2C8" stroke-width="3" stroke-miterlimit="10" stroke-linecap="round" stroke-linejoin="round"/><path d="m366.13 416.86 2.94 1.71c.54.32.73 1.01.41 1.56l-3.54 6.12c-.31.54-1.01.73-1.56.42l-2.96-1.71c-.42-.24-.94-.18-1.31.14a15.881 15.881 0 0 1-5.17 3.01c-.46.16-.77.57-.77 1.06v3.4c0 .63-.51 1.14-1.14 1.14h-7.07c-.63 0-1.14-.51-1.14-1.14v-3.4c0-.49-.32-.9-.77-1.06-1.91-.67-3.65-1.69-5.17-3.01-.37-.32-.89-.39-1.31-.14l-2.96 1.71c-.54.31-1.24.13-1.56-.42l-3.54-6.12c-.31-.54-.13-1.24.41-1.56l2.94-1.71c.42-.25.62-.73.53-1.21-.18-.97-.27-1.96-.27-2.99 0-1.03.09-2.02.27-2.99.09-.48-.11-.96-.53-1.21l-2.94-1.71c-.54-.32-.73-1.01-.41-1.56l3.54-6.12a1.15 1.15 0 0 1 1.56-.42l2.96 1.71c.42.24.94.18 1.31-.14 1.52-1.32 3.26-2.34 5.17-3.01.46-.16.77-.57.77-1.06v-3.4c0-.63.51-1.14 1.14-1.14h7.07c.63 0 1.14.51 1.14 1.14v3.4c0 .49.32.9.77 1.06 1.91.67 3.65 1.69 5.17 3.01.37.32.89.39 1.31.14l2.96-1.71c.54-.31 1.24-.13 1.56.42l3.54 6.12c.31.54.13 1.24-.41 1.56l-2.94 1.71c-.42.25-.62.73-.53 1.21.18.97.27 1.96.27 2.99 0 1.03-.09 2.02-.27 2.99-.09.48.11.96.53 1.21Z" fill="#fff" stroke="#F78A7E" stroke-width="3" stroke-miterlimit="10" stroke-linecap="round" stroke-linejoin="round"/><path d="M349.5 417.7a5.04 5.04 0 1 0 0-10.08 5.04 5.04 0 0 0 0 10.08Z" fill="#fff" stroke="#F78A7E" stroke-width="3" stroke-miterlimit="10" stroke-linecap="round" stroke-linejoin="round"/><path d="m421.35 499.62 143.36-143.36M149.32 234.19 292.68 90.83M561.41 230.89 418.05 87.53M295.98 502.92 152.62 359.56" stroke="#CADFEB" stroke-width="3" stroke-miterlimit="10" stroke-linecap="round" stroke-linejoin="round"/><path d="M324.26 185.18h43.87" stroke="#F78A7E" stroke-width="3" stroke-miterlimit="10" stroke-linecap="round" stroke-linejoin="round"/><path d="m324.26 177.26 18.91-18.91 10.35 10.35 8.94-8.95" fill="#fff"/><path d="m324.26 177.26 18.91-18.91 10.35 10.35 8.94-8.95" stroke="#F78A7E" stroke-width="3" stroke-miterlimit="10" stroke-linecap="round" stroke-linejoin="round"/><path d="m368.13 154.04-9.49 3.6c3.34 1.18 4.9 2.55 5.96 5.94l3.53-9.54ZM248.12 310.54h-35.53c-2.76 0-5-2.24-5-5v-25.65c0-2.76 2.24-5 5-5h35.53v35.65Z" fill="#fff" stroke="#F78A7E" stroke-width="3" stroke-miterlimit="10" stroke-linecap="round" stroke-linejoin="round"/><path d="M248.91 296.65h-9.02c-2.18 0-3.94-1.76-3.94-3.94 0-2.18 1.76-3.94 3.94-3.94h9.02c.61 0 1.1.49 1.1 1.1v5.69c-.01.6-.5 1.09-1.1 1.09Z" fill="#fff" stroke="#F78A7E" stroke-width="3" stroke-miterlimit="10" stroke-linecap="round" stroke-linejoin="round"/><path d="m338.68 307.45 3.52-5.54c1.2 1.18 2.45 2.08 3.74 2.7 1.29.62 2.57.93 3.83.93 1.64 0 2.98-.44 4-1.31 1.02-.87 1.53-2 1.53-3.38 0-2.02-1.87-3.94-5.62-5.76-.96-.47-1.69-.85-2.19-1.12-3.07-1.58-5.26-3.22-6.59-4.92-1.33-1.7-1.98-3.69-1.98-5.96 0-2.51.65-4.63 1.95-6.37 1.3-1.74 3.18-2.99 5.62-3.75v-5.02h2.59v4.58c.04 0 .1-.01.18-.03.68-.06 1.21-.08 1.59-.08.18 0 .38.01.6.03.22.02.47.05.75.08v-4.58h2.59v4.86c1.52.33 2.86.8 4.01 1.42 1.15.62 2.16 1.41 3.02 2.37l-4.12 5.37c-1.14-.95-2.29-1.65-3.43-2.13-1.14-.47-2.28-.71-3.43-.71-1.2 0-2.2.34-2.99 1.01-.79.67-1.19 1.53-1.19 2.56 0 1.8 1.93 3.58 5.77 5.35.34.15.59.26.75.36 3.85 1.75 6.45 3.47 7.82 5.18 1.36 1.71 2.04 3.95 2.04 6.71 0 2.75-.74 5.12-2.23 7.13-1.48 2.01-3.5 3.35-6.04 4.02v5.65h-2.59v-5.24c-.3.07-.63.13-.98.16-.35.04-.72.06-1.1.06-.3 0-.52 0-.65-.01s-.27-.02-.41-.04v5.07h-2.59v-5.46c-1.4-.13-2.76-.54-4.06-1.23-1.25-.68-2.5-1.67-3.71-2.96Z" fill="#17154B"/></g><defs><clipPath id="a"><path fill="#fff" transform="translate(119 61)" d="M0 0h462.34v462.34H0z"/></clipPath></defs></svg>