<svg width="53" height="46" fill="none" xmlns="http://www.w3.org/2000/svg"><g clip-path="url(#a)"><path d="M26.58.742C39.095.742 49.234 10.703 49.234 23M26.58 45.258C14.067 45.258 3.928 35.296 3.928 23m29.197 20.28c6.117 0 11.075-4.872 11.075-10.882s-4.958-10.882-11.075-10.882c-6.117 0-11.075 4.872-11.075 10.882S27.008 43.28 33.125 43.28Z" stroke="#17154B" stroke-width="1.5" stroke-miterlimit="10" stroke-linecap="round" stroke-linejoin="round"/><path d="M33.125 36.354c2.224 0 4.027-1.771 4.027-3.957 0-2.185-1.803-3.957-4.027-3.957s-4.027 1.772-4.027 3.957c0 2.186 1.803 3.957 4.027 3.957ZM20.036 25.473c6.117 0 11.075-4.872 11.075-10.882S26.153 3.71 20.036 3.71c-6.117 0-11.075 4.872-11.075 10.882s4.958 10.882 11.075 10.882Z" stroke="#17154B" stroke-width="1.5" stroke-miterlimit="10" stroke-linecap="round" stroke-linejoin="round"/><path d="M20.036 16.57c1.112 0 2.014-.886 2.014-1.979 0-1.092-.902-1.978-2.014-1.978-1.112 0-2.014.886-2.014 1.978 0 1.093.902 1.979 2.014 1.979Z" fill="#17154B"/><path d="m45.941 19.794 3.041 4.66 3.262-4.56M7.068 27.066l-3.04-4.66-3.273 4.57" stroke="#17154B" stroke-width="1.5" stroke-miterlimit="10" stroke-linecap="round" stroke-linejoin="round"/></g><defs><clipPath id="a"><path fill="#fff" d="M0 0h53v46H0z"/></clipPath></defs></svg>