<svg width="48" height="47" fill="none" xmlns="http://www.w3.org/2000/svg"><g clip-path="url(#a)" stroke="#17154B" stroke-width="1.5" stroke-miterlimit="10" stroke-linecap="round" stroke-linejoin="round"><path d="M24.03 35.077c-6.679 0-12.095-5.304-12.095-11.844 0-6.54 5.416-11.844 12.096-11.844s12.096 5.303 12.096 11.844c0 6.54-5.417 11.844-12.096 11.844Z"/><path d="M23.95 23.331c-2.254 0-4.194-1.316-4.194-2.879s1.94-2.88 4.194-2.88c1.525 0 2.9.426 3.769 1.228m-3.769 4.531c2.253 0 4.194 1.317 4.194 2.88s-1.94 2.88-4.194 2.88c-1.526 0-2.9-.426-3.77-1.228m3.77-12.724v16.385"/><path d="M24.007.74.763 23.5l23.244 22.76L47.25 23.5 24.007.74ZM24 46.258V35.106M47.242 23.5H36.156M24 .742V11.36M.758 23.5h11.146"/></g><defs><clipPath id="a"><path fill="#fff" d="M0 0h48v47H0z"/></clipPath></defs></svg>